<svg width="82" height="81" viewBox="0 0 82 81" fill="none" xmlns="http://www.w3.org/2000/svg">
<g id="Vector">
<path d="M0 0H82V81H0V0Z" fill="#14191D"/>
<path d="M43.152 68.024C40.2507 68.024 37.6053 67.32 35.216 65.912C32.8267 64.504 30.9387 62.5627 29.552 60.088V67H24.88V11.96H29.552V41.048C30.896 38.5947 32.752 36.6747 35.12 35.288C37.488 33.9013 40.1333 33.208 43.056 33.208C46.192 33.208 48.9973 33.9653 51.472 35.48C53.9467 36.9947 55.888 39.064 57.296 41.688C58.7253 44.2907 59.44 47.2667 59.44 50.616C59.44 53.9867 58.7147 56.984 57.264 59.608C55.8347 62.232 53.8933 64.2907 51.44 65.784C48.9867 67.2773 46.224 68.024 43.152 68.024ZM42 63.96C44.4533 63.96 46.6293 63.3947 48.528 62.264C50.4267 61.112 51.9093 59.5333 52.976 57.528C54.064 55.5013 54.608 53.208 54.608 50.648C54.608 48.0453 54.064 45.7413 52.976 43.736C51.888 41.7093 50.3947 40.1307 48.496 39C46.6187 37.848 44.4533 37.272 42 37.272C39.5467 37.272 37.3707 37.848 35.472 39C33.5733 40.1307 32.08 41.7093 30.992 43.736C29.904 45.7413 29.36 48.0453 29.36 50.648C29.36 53.208 29.8933 55.5013 30.96 57.528C32.048 59.5333 33.5413 61.112 35.44 62.264C37.36 63.3947 39.5467 63.96 42 63.96Z" fill="#EDEDED"/>
</g>
</svg>
