<svg width="42" height="58" viewBox="0 0 42 58" fill="none" xmlns="http://www.w3.org/2000/svg">
<path d="M40.6444 30.7017C36.5222 19.161 21.845 18.5387 25.3896 1.76518C25.6522 0.520593 24.4181 -0.441129 23.4204 0.209448C13.8895 6.26264 7.03662 18.3973 12.7867 34.294C13.2593 35.5952 11.8415 36.8115 10.8175 35.9629C6.06515 32.0877 5.56628 26.5154 5.98638 22.5271C6.14392 21.0562 4.35851 20.349 3.59708 21.5653C1.81167 24.5071 0 29.2591 0 36.4155C0.99773 52.2556 13.4168 57.1208 17.8804 57.7431C24.2606 58.6199 31.1659 57.3471 36.1283 52.4536C41.5896 46.9944 43.5851 38.2823 40.6444 30.7017ZM16.2788 44.9295C20.0596 43.9395 22.0026 40.9978 22.5277 38.3955C23.3941 34.3506 20.0071 30.3906 22.2914 23.9979C23.1578 29.2874 30.8771 32.5969 30.8771 38.3672C31.0872 45.5235 23.893 51.6616 16.2788 44.9295Z" fill="#F38928"/>
</svg>
