<svg width="51" height="59" viewBox="0 0 51 59" fill="none" xmlns="http://www.w3.org/2000/svg">
<g clip-path="url(#clip0_61_1157)">
<path opacity="0.3" d="M17 39.3334H42.5V9.83337H17V39.3334ZM21.25 14.75H38.25V19.6667H21.25V14.75ZM21.25 22.125H38.25V27.0417H21.25V22.125ZM21.25 29.5H29.75V34.4167H21.25V29.5Z" fill="#379FFF"/>
<path d="M8.5 54.0833H38.25V49.1666H8.5V14.75H4.25V49.1666C4.25 51.8708 6.1625 54.0833 8.5 54.0833ZM12.75 9.83329V39.3333C12.75 42.0375 14.6625 44.25 17 44.25H42.5C44.8375 44.25 46.75 42.0375 46.75 39.3333V9.83329C46.75 7.12913 44.8375 4.91663 42.5 4.91663H17C14.6625 4.91663 12.75 7.12913 12.75 9.83329ZM42.5 39.3333H17V9.83329H42.5V39.3333ZM21.25 22.125H38.25V27.0416H21.25V22.125ZM21.25 29.5H29.75V34.4166H21.25V29.5ZM21.25 14.75H38.25V19.6666H21.25V14.75Z" fill="#379FFF"/>
</g>
<defs>
<clipPath id="clip0_61_1157">
<rect width="51" height="59" fill="white"/>
</clipPath>
</defs>
</svg>
